<svg width="48" height="48" viewBox="0 0 48 48" fill="none" xmlns="http://www.w3.org/2000/svg">
<g id="Icon/32x/clean" clip-path="url(#clip0_302_2790)">
<path id="Vector" d="M21.9285 39.4201L21.2206 44.2344C21.079 45.5088 19.9462 46.3584 18.6718 46.3584H9.18469C7.91031 46.3584 6.91912 45.3672 6.63592 44.2344L4.51195 28.6586C4.37035 27.101 5.50314 25.8267 7.06072 25.8267H18.247" stroke="#6E6BE8" stroke-width="3" stroke-miterlimit="10"/>
<path id="Vector_2" d="M6.91919 25.6851C6.91919 21.862 10.0344 18.7468 13.8575 18.7468C17.6807 18.7468 20.7958 21.862 20.7958 25.6851" stroke="#6E6BE8" stroke-width="3" stroke-miterlimit="10"/>
<path id="Vector_3" d="M27.7341 1.18848L31.8405 38.8536" stroke="#F7658B" stroke-width="3" stroke-miterlimit="10"/>
<path id="Vector_4" d="M21.9286 39.4199H38.7788C39.3452 39.4199 39.77 39.7031 39.9116 40.1279L41.8939 44.6591C42.3187 45.5086 41.6107 46.4998 40.7611 46.4998H20.9374L21.9286 39.4199Z" stroke="#6E6BE8" stroke-width="3" stroke-miterlimit="10"/>
<path id="Vector_5" d="M21.6454 39.4201H18.247C16.9726 39.4201 16.123 38.4289 16.123 37.2961V27.9506C16.123 26.6763 17.1142 25.8267 18.247 25.8267H21.6454C22.9198 25.8267 23.7694 26.8178 23.7694 27.9506V37.2961C23.7694 38.5705 22.7782 39.4201 21.6454 39.4201Z" stroke="#F3A8A2" stroke-width="3" stroke-miterlimit="10"/>
</g>
<defs>
<clipPath id="clip0_302_2790">
<rect width="48" height="48" fill="white"/>
</clipPath>
</defs>
</svg>
