<svg width="88" height="61" viewBox="0 0 88 61" fill="none" xmlns="http://www.w3.org/2000/svg">
<g id="logo_icon" clip-path="url(#clip0_60_1107)">
<path id="Vector" d="M58.8501 60.9997H29.1501C25.8501 60.9997 23.1001 58.2765 23.1001 55.0087V36.4908C23.1001 34.8569 24.2001 33.7676 25.8501 33.7676C27.5001 33.7676 28.6001 34.8569 28.6001 36.4908V54.464C28.6001 55.0087 29.1501 55.0087 29.1501 55.0087H58.8501C59.4001 55.0087 59.4001 54.464 59.4001 54.464V36.4908C59.4001 34.8569 60.5001 33.7676 62.1501 33.7676C63.8001 33.7676 64.9001 34.8569 64.9001 36.4908V54.464C64.9001 58.2765 62.1501 60.9997 58.8501 60.9997Z" fill="#583EF2"/>
<path id="Vector_2" d="M50.5999 56.6428H37.3999V39.7589C37.3999 35.9464 40.1499 33.2231 43.9999 33.2231C47.8499 33.2231 50.5999 35.9464 50.5999 39.7589V56.6428Z" fill="#583EF2"/>
<path id="Vector_3" d="M24.1999 0.544713C24.1999 6.97523e-05 23.0999 6.97523e-05 23.0999 0.544713L22.5499 1.08936C21.9999 2.17864 21.4499 2.72328 20.8999 3.26793L19.2499 4.35721C18.6999 4.35721 18.6999 4.90186 19.2499 5.4465L20.8999 6.53578C21.4499 6.53578 21.9999 7.62507 22.5499 8.16971L23.0999 9.259C23.0999 9.80364 24.1999 9.80364 24.1999 9.259L24.7499 8.16971C25.2999 7.62507 25.8499 6.53578 26.3999 5.99114L28.0499 5.4465C28.5999 4.90186 28.5999 4.35721 28.0499 4.35721L26.3999 3.26793C25.8499 2.72328 24.7499 2.17864 24.7499 1.08936L24.1999 0.544713Z" fill="#583EF2"/>
<path id="Vector_4" d="M68.75 9.8035C68.75 9.25886 67.65 9.25886 67.65 9.8035L67.1 10.3481C67.1 10.8928 66.55 11.4374 66 11.9821L64.9 12.5267C64.35 12.5267 64.35 13.0714 64.9 13.616L66 14.7053C66.55 15.2499 67.1 15.7946 67.65 16.3392L68.2 16.8839C68.2 17.4285 69.3 17.4285 69.3 16.8839V16.3392C69.85 15.7946 69.85 15.2499 70.95 14.7053L72.05 14.1606C72.6 14.1606 72.6 13.616 72.05 13.0714L70.95 12.5267C70.4 11.9821 69.85 11.4374 69.3 10.8928L68.75 9.8035Z" fill="#583EF2"/>
<path id="Vector_5" d="M12.65 31.5893C12.1 31.5893 11.55 31.5893 11 31.0447L1.10003 23.4196C3.29018e-05 22.3304 -0.549967 20.6964 0.550033 19.6071C1.65003 18.5179 3.30003 17.9732 4.40003 19.0625L14.3 26.6875C15.4 27.2321 15.95 29.4107 14.85 30.5C14.3 31.0447 13.75 31.5893 12.65 31.5893Z" fill="#F3A8A2"/>
<path id="Vector_6" d="M67.1 31.5891C66.55 31.5891 66 31.5891 65.45 31.0445L46.2 14.7052C45.1 13.6159 44 13.6159 42.9001 14.7052L23.65 31.0445C22 31.5891 19.8 31.5891 19.25 30.4999C18.15 29.4106 18.15 27.7766 19.25 26.6874L38.5 10.3481C41.8 7.62486 46.2 7.62486 48.95 10.3481L68.2 26.6874C69.3 27.7766 69.3 29.4106 68.75 30.4999C68.2 31.0445 67.65 31.5891 67.1 31.5891Z" fill="#F7658B"/>
<path id="Vector_7" d="M75.3499 31.5893C74.2499 31.5893 73.6999 31.0447 73.1499 30.5C72.0499 29.4107 72.5999 27.7768 73.6999 26.6875L83.5999 19.0625C84.6999 17.9732 86.3499 18.5179 87.4499 19.6071C88.5499 20.6964 87.9999 22.3304 86.8999 23.4196L76.9999 31.0447C76.4499 31.0447 75.8999 31.5893 75.3499 31.5893Z" fill="#F3A8A2"/>
</g>
<defs>
<clipPath id="clip0_60_1107">
<rect width="88" height="61" fill="white"/>
</clipPath>
</defs>
</svg>
